<?xml version="1.0" standalone="no"?>
<!DOCTYPE svg PUBLIC "-//W3C//DTD SVG 20010904//EN"
 "http://www.w3.org/TR/2001/REC-SVG-20010904/DTD/svg10.dtd">
<svg version="1.0" xmlns="http://www.w3.org/2000/svg"
 width="96.000000pt" height="96.000000pt" viewBox="0 0 96.000000 96.000000"
 preserveAspectRatio="xMidYMid meet">
<metadata>
Created by potrace 1.16, written by Peter Selinger 2001-2019
</metadata>
<g transform="translate(0.000000,96.000000) scale(0.100000,-0.100000)"
fill="#000000" stroke="none">
<path d="M72 923 c-2 -42 -3 -43 -37 -43 -19 0 -35 -4 -35 -10 0 -5 16 -10 35
-10 33 0 35 -2 35 -34 0 -33 -2 -35 -37 -39 l-38 -4 38 -1 37 -2 0 -85 0 -85
-35 0 c-19 0 -35 -4 -35 -10 0 -5 16 -10 35 -10 33 0 35 -2 35 -34 0 -33 -2
-35 -37 -39 l-38 -4 38 -1 c34 -2 37 -4 37 -31 0 -27 -4 -30 -37 -34 l-38 -4
38 -1 c35 -2 37 -4 37 -37 0 -33 -2 -35 -35 -35 -19 0 -35 -4 -35 -10 0 -5 16
-10 35 -10 l35 0 0 -84 0 -85 -37 -4 -38 -4 38 -1 c35 -2 37 -4 37 -37 0 -33
-2 -35 -35 -35 -19 0 -35 -4 -35 -10 0 -5 15 -10 34 -10 34 0 35 -1 39 -43 l4
-42 1 43 2 42 39 0 c40 0 40 0 44 -42 l4 -43 1 43 2 42 89 0 90 0 4 -42 4 -43
1 43 2 42 44 0 45 0 4 -42 4 -43 1 43 c2 37 5 42 26 42 22 0 25 -5 29 -42 l4
-43 1 43 2 42 39 0 c40 0 40 0 44 -42 l4 -43 1 43 2 42 89 0 90 0 4 -42 4 -43
1 43 2 42 44 0 45 0 4 -42 4 -43 1 43 c2 40 4 42 32 42 17 0 30 5 30 10 0 6
-13 10 -30 10 -28 0 -30 3 -30 34 0 32 3 35 33 39 l32 4 -32 1 -33 2 0 85 0
85 30 0 c17 0 30 5 30 10 0 6 -13 10 -30 10 -28 0 -30 3 -30 34 0 32 3 35 33
39 l32 4 -32 1 c-29 2 -33 5 -33 31 0 26 4 30 33 34 l32 4 -32 1 c-31 2 -33 5
-33 37 0 32 2 35 30 35 17 0 30 5 30 10 0 6 -13 10 -30 10 l-30 0 0 84 0 85
33 4 32 4 -32 1 c-31 2 -33 5 -33 37 0 32 2 35 30 35 17 0 30 5 30 10 0 6 -13
10 -29 10 -28 0 -30 3 -34 43 l-4 42 -1 -42 -2 -43 -44 0 -45 0 -4 43 -4 42
-1 -42 -2 -43 -89 0 -90 0 -4 43 -4 42 -1 -42 -2 -43 -39 0 c-40 0 -40 0 -44
43 l-4 42 -1 -42 c-2 -38 -5 -43 -26 -43 -22 0 -25 5 -29 43 l-4 42 -1 -42 -2
-43 -44 0 -45 0 -4 43 -4 42 -1 -42 -2 -43 -89 0 -90 0 -4 43 -4 42 -1 -42 -2
-43 -39 0 c-40 0 -40 0 -44 43 l-4 42 -1 -42z m88 -98 c0 -34 -1 -35 -40 -35
-39 0 -40 1 -40 35 0 34 1 35 40 35 39 0 40 -1 40 -35z m190 0 l0 -35 -90 0
-90 0 0 35 0 35 90 0 90 0 0 -35z m100 0 c0 -35 0 -35 -45 -35 -45 0 -45 0
-45 35 0 35 0 35 45 35 45 0 45 0 45 -35z m60 0 c0 -31 -3 -35 -25 -35 -22 0
-25 4 -25 35 0 31 3 35 25 35 22 0 25 -4 25 -35z m90 0 c0 -34 -1 -35 -40 -35
-39 0 -40 1 -40 35 0 34 1 35 40 35 39 0 40 -1 40 -35z m190 0 l0 -35 -90 0
-90 0 0 35 0 35 90 0 90 0 0 -35z m100 0 c0 -35 0 -35 -45 -35 -45 0 -45 0
-45 35 0 35 0 35 45 35 45 0 45 0 45 -35z m-730 -130 l0 -85 -40 0 -40 0 0 85
0 85 40 0 40 0 0 -85z m190 0 l0 -85 -90 0 -90 0 0 78 c0 43 3 82 7 85 3 4 44
7 90 7 l83 0 0 -85z m100 0 l0 -85 -45 0 -45 0 0 85 0 85 45 0 45 0 0 -85z
m60 0 c0 -84 0 -85 -25 -85 -25 0 -25 1 -25 85 0 84 0 85 25 85 25 0 25 -1 25
-85z m90 0 l0 -85 -40 0 -40 0 0 85 0 85 40 0 40 0 0 -85z m190 0 l0 -85 -90
0 -90 0 0 78 c0 43 3 82 7 85 3 4 44 7 90 7 l83 0 0 -85z m98 -2 l3 -83 -46 0
-45 0 0 86 0 85 43 -3 42 -3 3 -82z m-728 -138 c0 -34 -1 -35 -40 -35 -39 0
-40 1 -40 35 0 34 1 35 40 35 39 0 40 -1 40 -35z m190 0 l0 -35 -90 0 -90 0 0
35 0 35 90 0 90 0 0 -35z m100 0 c0 -35 0 -35 -45 -35 -45 0 -45 0 -45 35 0
35 0 35 45 35 45 0 45 0 45 -35z m60 0 c0 -31 -3 -35 -25 -35 -22 0 -25 4 -25
35 0 31 3 35 25 35 22 0 25 -4 25 -35z m90 0 c0 -34 -1 -35 -40 -35 -39 0 -40
1 -40 35 0 34 1 35 40 35 39 0 40 -1 40 -35z m190 0 l0 -35 -90 0 -90 0 0 35
0 35 90 0 90 0 0 -35z m100 0 c0 -35 0 -35 -45 -35 -45 0 -45 0 -45 35 0 35 0
35 45 35 45 0 45 0 45 -35z m-730 -75 c0 -28 -2 -30 -40 -30 -38 0 -40 2 -40
30 0 28 2 30 40 30 38 0 40 -2 40 -30z m190 0 l0 -30 -90 0 -90 0 0 30 0 30
90 0 90 0 0 -30z m100 0 c0 -29 -2 -30 -45 -30 -43 0 -45 1 -45 30 0 29 2 30
45 30 43 0 45 -1 45 -30z m60 0 c0 -25 -4 -30 -25 -30 -21 0 -25 5 -25 30 0
25 4 30 25 30 21 0 25 -5 25 -30z m90 0 c0 -28 -2 -30 -40 -30 -38 0 -40 2
-40 30 0 28 2 30 40 30 38 0 40 -2 40 -30z m190 0 l0 -30 -90 0 -90 0 0 30 0
30 90 0 90 0 0 -30z m100 0 c0 -29 -2 -30 -45 -30 -43 0 -45 1 -45 30 0 29 2
30 45 30 43 0 45 -1 45 -30z m-730 -75 c0 -34 -1 -35 -40 -35 -39 0 -40 1 -40
35 0 34 1 35 40 35 39 0 40 -1 40 -35z m190 0 l0 -35 -90 0 -90 0 0 35 0 35
90 0 90 0 0 -35z m100 0 c0 -35 0 -35 -45 -35 -45 0 -45 0 -45 35 0 35 0 35
45 35 45 0 45 0 45 -35z m60 0 c0 -31 -3 -35 -25 -35 -22 0 -25 4 -25 35 0 31
3 35 25 35 22 0 25 -4 25 -35z m90 0 c0 -34 -1 -35 -40 -35 -39 0 -40 1 -40
35 0 34 1 35 40 35 39 0 40 -1 40 -35z m190 0 l0 -35 -90 0 -90 0 0 35 0 35
90 0 90 0 0 -35z m100 0 c0 -35 0 -35 -45 -35 -45 0 -45 0 -45 35 0 35 0 35
45 35 45 0 45 0 45 -35z m-730 -140 l0 -85 -40 0 -40 0 0 85 0 85 40 0 40 0 0
-85z m190 0 l0 -86 -87 3 -88 3 -3 83 -3 82 91 0 90 0 0 -85z m100 0 l0 -85
-45 0 -45 0 0 85 0 85 45 0 45 0 0 -85z m60 0 c0 -84 0 -85 -25 -85 -25 0 -25
1 -25 85 0 84 0 85 25 85 25 0 25 -1 25 -85z m90 0 l0 -85 -40 0 -40 0 0 85 0
85 40 0 40 0 0 -85z m190 0 l0 -86 -87 3 -88 3 -3 83 -3 82 91 0 90 0 0 -85z
m98 3 l-3 -83 -42 -3 -43 -3 0 85 0 86 45 0 46 0 -3 -82z m-728 -133 c0 -34
-1 -35 -40 -35 -39 0 -40 1 -40 35 0 34 1 35 40 35 39 0 40 -1 40 -35z m190 0
l0 -35 -90 0 -90 0 0 35 0 35 90 0 90 0 0 -35z m100 0 c0 -35 0 -35 -45 -35
-45 0 -45 0 -45 35 0 35 0 35 45 35 45 0 45 0 45 -35z m60 0 c0 -31 -3 -35
-25 -35 -22 0 -25 4 -25 35 0 31 3 35 25 35 22 0 25 -4 25 -35z m90 0 c0 -34
-1 -35 -40 -35 -39 0 -40 1 -40 35 0 34 1 35 40 35 39 0 40 -1 40 -35z m190 0
l0 -35 -90 0 -90 0 0 35 0 35 90 0 90 0 0 -35z m100 0 c0 -35 0 -35 -45 -35
-45 0 -45 0 -45 35 0 35 0 35 45 35 45 0 45 0 45 -35z"/>
</g>
</svg>
