<?xml version="1.0" standalone="no"?>
<!DOCTYPE svg PUBLIC "-//W3C//DTD SVG 20010904//EN"
 "http://www.w3.org/TR/2001/REC-SVG-20010904/DTD/svg10.dtd">
<svg version="1.0" xmlns="http://www.w3.org/2000/svg"
 width="96.000000pt" height="96.000000pt" viewBox="0 0 96.000000 96.000000"
 preserveAspectRatio="xMidYMid meet">
<metadata>
Created by potrace 1.16, written by Peter Selinger 2001-2019
</metadata>
<g transform="translate(0.000000,96.000000) scale(0.100000,-0.100000)"
fill="#000000" stroke="none">
<path d="M0 905 l0 -55 50 0 50 0 0 -50 0 -50 -50 0 -50 0 0 -59 0 -58 50 5
50 5 0 -57 0 -56 -50 0 -50 0 0 -55 0 -55 50 0 50 0 0 -50 0 -50 -50 0 -50 0
0 -55 0 -55 50 0 50 0 0 -50 0 -50 -50 0 -50 0 0 -55 0 -55 55 0 55 0 0 55 0
55 50 0 50 0 0 -55 0 -55 55 0 55 0 0 55 0 55 50 0 50 0 0 -55 0 -55 61 0 61
0 -4 55 -5 55 31 0 c67 0 76 -8 76 -61 l0 -49 55 0 55 0 0 50 0 50 50 0 50 0
0 -50 0 -50 55 0 55 0 0 55 0 55 -50 0 -50 0 0 50 0 50 50 0 50 0 0 55 0 55
-50 0 -50 0 0 50 0 50 50 0 50 0 0 55 0 55 -50 0 -50 0 0 50 0 50 50 0 50 0 0
60 0 60 -50 0 -50 0 0 50 0 50 50 0 50 0 0 55 0 55 -55 0 -55 0 0 -55 0 -55
-50 0 -50 0 0 55 0 55 -55 0 -55 0 0 -50 0 -50 -55 0 -55 0 0 50 0 50 -55 0
-55 0 0 -50 0 -50 -50 0 -50 0 0 50 0 50 -55 0 -55 0 0 -50 0 -50 -50 0 -50 0
0 50 0 50 -55 0 -55 0 0 -55z m320 -105 l0 -50 50 0 50 0 0 -50 0 -50 -50 0
-50 0 0 49 0 50 -52 3 -53 3 -3 48 -3 47 55 0 56 0 0 -50z m210 0 l0 -50 -50
0 -50 0 0 50 0 50 50 0 50 0 0 -50z m210 0 l0 -50 -50 0 -50 0 0 50 0 50 50 0
50 0 0 -50z m-530 -100 l0 -50 -50 0 -50 0 0 50 0 50 50 0 50 0 0 -50z m430
-11 c0 -49 0 -49 -32 -49 -67 0 -78 8 -78 54 0 24 2 45 4 47 2 2 27 2 55 1
l51 -4 0 -49z m210 1 l0 -50 -50 0 -50 0 0 50 0 50 50 0 50 0 0 -50z m-530
-105 l0 -55 50 0 50 0 0 -50 0 -50 -50 0 -50 0 0 50 0 50 -50 0 -50 0 0 39 c0
22 -3 46 -6 55 -5 13 3 16 50 16 l56 0 0 -55z m210 5 l0 -50 -50 0 -50 0 0 50
0 50 50 0 50 0 0 -50z m210 -7 l0 -48 -50 3 -50 4 0 44 0 44 50 0 50 0 0 -47z
m-530 -103 l0 -50 -50 0 -50 0 0 50 0 50 50 0 50 0 0 -50z m428 3 l-3 -48 -50
0 -50 0 -3 48 -3 47 56 0 56 0 -3 -47z m212 -3 l0 -50 -50 0 -50 0 0 50 0 50
50 0 50 0 0 -50z m-320 -100 l0 -50 -50 0 -50 0 0 44 c0 41 2 45 28 49 73 11
72 11 72 -43z m210 0 l0 -50 -50 0 -50 0 0 50 0 50 50 0 50 0 0 -50z m-420 -4
c0 -42 -1 -44 -37 -50 -63 -10 -63 -10 -63 44 l0 50 50 0 50 0 0 -44z m-110
-106 l0 -50 -50 0 -50 0 0 50 0 50 50 0 50 0 0 -50z m210 0 l0 -50 -50 0 -50
0 0 50 0 50 50 0 50 0 0 -50z m222 -2 l3 -53 48 -3 47 -3 0 -50 0 -49 -50 0
-50 0 0 55 0 55 -55 0 -55 0 0 -50 0 -50 -50 0 -50 0 0 50 0 50 50 0 50 0 0
50 0 50 54 0 55 0 3 -52z m208 -3 l0 -55 -50 0 -50 0 0 55 0 55 50 0 50 0 0
-55z m-532 -97 l3 -48 -55 0 -56 0 0 43 c0 24 3 47 7 51 4 4 28 6 53 4 l45 -3
3 -47z"/>
</g>
</svg>
