<?xml version="1.0" standalone="no"?>
<!DOCTYPE svg PUBLIC "-//W3C//DTD SVG 20010904//EN"
 "http://www.w3.org/TR/2001/REC-SVG-20010904/DTD/svg10.dtd">
<svg version="1.0" xmlns="http://www.w3.org/2000/svg"
 width="96.000000pt" height="96.000000pt" viewBox="0 0 96.000000 96.000000"
 preserveAspectRatio="xMidYMid meet">
<metadata>
Created by potrace 1.16, written by Peter Selinger 2001-2019
</metadata>
<g transform="translate(0.000000,96.000000) scale(0.100000,-0.100000)"
fill="#000000" stroke="none">
<path d="M57 881 l-57 -78 0 -82 0 -81 55 0 c30 0 55 -2 55 -5 0 -3 -25 -39
-55 -79 l-55 -73 0 -81 0 -82 55 0 c30 0 55 -2 55 -5 0 -3 -25 -39 -55 -79
l-55 -73 0 -81 0 -82 480 0 480 0 0 82 0 81 -55 73 c-30 40 -55 76 -55 79 0 3
25 5 55 5 l55 0 0 82 0 81 -55 73 c-30 40 -55 76 -55 79 0 3 25 5 55 5 l55 0
0 81 0 82 -57 78 c-32 43 -60 78 -64 79 -3 0 -30 -34 -60 -75 -29 -41 -56 -75
-60 -75 -3 0 -30 34 -60 75 -29 41 -56 75 -60 75 -3 0 -30 -34 -60 -75 -29
-41 -56 -75 -60 -75 -3 0 -30 34 -60 75 -29 41 -56 75 -60 75 -3 0 -30 -34
-60 -75 -29 -41 -56 -75 -60 -75 -3 0 -30 34 -60 75 -29 41 -56 74 -59 74 -3
0 -31 -35 -63 -78z m167 -93 c-24 -40 -97 -133 -104 -133 -8 0 -110 129 -110
140 0 3 50 5 111 5 85 0 108 -3 103 -12z m239 -1 c-18 -30 -98 -136 -103 -137
-6 0 -110 137 -110 145 0 3 50 5 110 5 90 0 109 -3 103 -13z m240 0 c-18 -30
-98 -136 -103 -137 -6 0 -110 137 -110 145 0 3 50 5 110 5 90 0 109 -3 103
-13z m240 0 c-18 -30 -98 -136 -103 -137 -6 0 -110 137 -110 145 0 3 50 5 110
5 90 0 109 -3 103 -13z m-600 -160 c-24 -39 -97 -137 -102 -137 -7 0 -111 136
-111 145 0 3 50 5 110 5 89 0 109 -3 103 -13z m240 0 c-18 -30 -98 -136 -103
-137 -6 0 -110 137 -110 145 0 3 50 5 110 5 90 0 109 -3 103 -13z m240 0 c-18
-30 -98 -136 -103 -137 -6 0 -110 137 -110 145 0 3 50 5 110 5 90 0 109 -3
103 -13z m-593 -152 c0 -11 -102 -140 -110 -140 -8 0 -110 129 -110 140 0 3
49 5 110 5 61 0 110 -2 110 -5z m234 -7 c-24 -40 -97 -133 -104 -133 -8 0
-110 129 -110 140 0 3 50 5 111 5 85 0 108 -3 103 -12z m239 -1 c-18 -30 -98
-136 -103 -137 -6 0 -110 137 -110 145 0 3 50 5 110 5 90 0 109 -3 103 -13z
m240 0 c-18 -30 -98 -136 -103 -137 -6 0 -110 137 -110 145 0 3 50 5 110 5 90
0 109 -3 103 -13z m-600 -160 c-24 -39 -97 -137 -102 -137 -7 0 -111 136 -111
145 0 3 50 5 110 5 89 0 109 -3 103 -13z m240 0 c-18 -30 -98 -136 -103 -137
-6 0 -110 137 -110 145 0 3 50 5 110 5 90 0 109 -3 103 -13z m240 0 c-18 -30
-98 -136 -103 -137 -6 0 -110 137 -110 145 0 3 50 5 110 5 90 0 109 -3 103
-13z m-599 -159 c-18 -31 -98 -138 -104 -138 -6 0 -86 107 -104 138 -6 9 18
12 104 12 86 0 110 -3 104 -12z m239 -1 c-18 -30 -98 -136 -103 -137 -6 0
-110 137 -110 145 0 3 50 5 110 5 90 0 109 -3 103 -13z m240 0 c-18 -30 -98
-136 -103 -137 -6 0 -110 137 -110 145 0 3 50 5 110 5 90 0 109 -3 103 -13z
m240 0 c-18 -30 -98 -136 -103 -137 -6 0 -110 137 -110 145 0 3 50 5 110 5 90
0 109 -3 103 -13z"/>
</g>
</svg>
