<?xml version="1.0" standalone="no"?>
<!DOCTYPE svg PUBLIC "-//W3C//DTD SVG 20010904//EN"
 "http://www.w3.org/TR/2001/REC-SVG-20010904/DTD/svg10.dtd">
<svg version="1.0" xmlns="http://www.w3.org/2000/svg"
 width="96.000000pt" height="96.000000pt" viewBox="0 0 96.000000 96.000000"
 preserveAspectRatio="xMidYMid meet">
<metadata>
Created by potrace 1.16, written by Peter Selinger 2001-2019
</metadata>
<g transform="translate(0.000000,96.000000) scale(0.100000,-0.100000)"
fill="#000000" stroke="none">
<path d="M32 918 c-26 -34 -32 -51 -32 -90 0 -47 1 -48 31 -48 l31 0 -31 -39
c-24 -31 -31 -49 -31 -84 0 -44 1 -46 31 -49 l31 -3 -31 -39 c-25 -31 -31 -48
-31 -87 0 -48 1 -49 31 -49 l30 0 -30 -37 c-25 -30 -31 -47 -31 -85 0 -45 1
-47 30 -50 l31 -3 -30 -35 c-25 -29 -30 -44 -31 -87 0 -53 0 -53 31 -53 l30 0
-30 -38 -31 -37 240 -3 c132 -1 348 -1 480 0 l240 3 -31 37 -30 38 30 0 c31 0
31 0 31 53 -1 43 -6 58 -31 87 l-30 35 31 3 c29 3 30 5 30 49 0 35 -7 53 -31
84 l-31 39 31 0 c31 0 31 0 31 53 -1 43 -6 58 -31 87 l-30 35 31 3 c29 3 30 5
30 49 0 35 -7 53 -31 84 l-31 39 31 0 c30 0 31 1 31 48 0 39 -6 56 -32 90 -18
23 -35 42 -38 42 -3 0 -18 -19 -35 -41 l-30 -40 -36 42 -35 42 -34 -43 -33
-42 -35 42 -35 42 -36 -42 -36 -42 -30 41 c-16 22 -33 41 -36 41 -4 0 -19 -19
-35 -41 l-28 -42 -38 44 c-36 42 -38 43 -52 24 -7 -11 -22 -31 -33 -44 l-19
-24 -34 43 -34 43 -35 -42 -36 -42 -30 40 c-17 22 -32 41 -35 41 -3 0 -20 -19
-38 -42z m68 -88 l-32 -40 -21 27 c-11 16 -25 34 -30 41 -7 9 5 12 53 12 l62
0 -32 -40z m160 34 c0 -3 -12 -21 -26 -40 l-27 -35 -28 33 c-16 18 -28 36 -29
41 0 4 25 7 55 7 30 0 55 -3 55 -6z m140 2 c0 -2 -13 -19 -29 -39 l-28 -36
-32 39 -32 40 61 0 c33 0 60 -2 60 -4z m118 -28 c-14 -18 -31 -33 -38 -33 -7
0 -24 15 -37 33 l-26 32 63 0 63 0 -25 -32z m130 -9 l-32 -40 -18 23 c-45 56
-44 58 22 58 l61 0 -33 -41z m162 34 c-1 -5 -13 -23 -29 -41 l-28 -32 -32 40
-32 40 61 0 c33 0 60 -3 60 -7z m133 -5 c-5 -7 -19 -25 -30 -41 l-21 -27 -32
40 -32 40 62 0 c48 0 60 -3 53 -12z m-753 -85 c-1 -16 -50 -64 -60 -58 -5 3
-19 19 -30 35 l-21 30 55 0 c31 0 56 -3 56 -7z m131 -11 c-5 -10 -17 -24 -25
-32 -28 -23 -17 -30 44 -30 33 0 60 -3 60 -7 0 -5 -13 -23 -29 -42 l-28 -34
-62 77 c-33 43 -61 79 -61 82 0 2 25 4 55 4 51 0 55 -2 46 -18z m123 -17 c-14
-19 -29 -35 -33 -35 -3 0 -19 16 -34 35 l-28 35 61 0 61 0 -27 -35z m139 0
c-15 -19 -31 -35 -34 -35 -4 0 -19 16 -33 35 l-27 35 61 0 61 0 -28 -35z m157
31 c0 -3 -28 -39 -61 -82 l-62 -77 -28 34 c-16 19 -29 37 -29 42 0 4 27 7 60
7 61 0 72 7 44 30 -8 8 -20 22 -25 32 -9 16 -5 18 46 18 30 0 55 -2 55 -4z
m120 -26 c-11 -16 -25 -32 -30 -35 -10 -6 -59 42 -60 58 0 4 25 7 56 7 l55 0
-21 -30z m-739 -67 c-6 -10 -20 -29 -31 -42 l-21 -24 -29 34 c-16 19 -29 37
-30 42 0 4 27 7 60 7 55 0 60 -2 51 -17z m139 9 c0 -4 -13 -23 -28 -42 l-28
-33 -27 35 c-15 19 -27 38 -27 41 0 4 25 7 55 7 30 0 55 -4 55 -8z m271 -9
c-6 -10 -19 -29 -30 -43 l-20 -25 -30 35 c-17 19 -30 38 -31 43 0 4 27 7 60 7
55 0 60 -2 51 -17z m279 9 c0 -4 -13 -23 -28 -42 l-28 -33 -27 35 c-15 19 -27
38 -27 41 0 4 25 7 55 7 30 0 55 -4 55 -8z m140 1 c-1 -5 -14 -23 -30 -42
l-29 -34 -21 24 c-47 56 -46 59 20 59 33 0 60 -3 60 -7z m-780 -124 l-33 -40
-28 33 c-15 18 -28 36 -29 41 0 4 27 7 61 7 l61 0 -32 -41z m160 34 c0 -5 -13
-23 -28 -41 l-28 -33 -32 40 -33 41 61 0 c33 0 60 -3 60 -7z m140 3 c0 -2 -13
-19 -29 -39 l-28 -36 -20 22 c-51 58 -51 57 16 57 33 0 61 -2 61 -4z m129 -13
c-7 -10 -22 -28 -32 -40 l-20 -22 -28 36 c-16 20 -29 37 -29 39 0 2 28 4 61 4
57 0 60 -1 48 -17z m119 -24 l-32 -40 -28 33 c-15 18 -28 36 -28 41 0 4 27 7
60 7 l61 0 -33 -41z m162 34 c-1 -5 -14 -23 -29 -41 l-28 -33 -33 40 -32 41
61 0 c34 0 61 -3 61 -7z m-776 -118 c-15 -20 -31 -34 -37 -32 -6 2 -21 17 -35
35 l-25 32 62 0 62 0 -27 -35z m156 28 c-1 -5 -13 -23 -29 -40 l-27 -33 -20
28 c-39 53 -39 52 20 52 31 0 56 -3 56 -7z m140 3 c0 -2 -13 -19 -29 -39 l-28
-36 -32 39 -32 40 61 0 c33 0 60 -2 60 -4z m114 -31 c-14 -19 -30 -35 -34 -35
-4 0 -20 16 -34 35 l-27 35 61 0 61 0 -27 -35z m135 -5 l-32 -39 -28 36 c-16
20 -29 37 -29 39 0 2 27 4 60 4 l61 0 -32 -40z m155 28 c-4 -7 -17 -25 -28
-40 l-20 -28 -27 33 c-16 17 -28 35 -29 40 0 4 25 7 56 7 41 0 53 -3 48 -12z
m124 -20 c-14 -18 -29 -33 -35 -35 -6 -2 -22 12 -37 32 l-27 35 62 0 62 0 -25
-32z m-738 -65 c-1 -16 -50 -64 -60 -58 -5 3 -19 19 -30 35 l-21 30 55 0 c31
0 56 -3 56 -7z m129 -10 c-41 -55 -41 -55 -62 -36 -10 10 -23 26 -28 35 -9 16
-4 18 47 18 52 0 55 -1 43 -17z m125 -18 c-14 -19 -29 -35 -33 -35 -3 0 -19
16 -34 35 l-28 35 61 0 61 0 -27 -35z m156 30 c0 -10 -43 -65 -51 -65 -4 0
-19 16 -33 35 l-27 35 55 0 c31 0 56 -2 56 -5z m131 -13 c-5 -9 -18 -25 -28
-35 -19 -16 -20 -16 -40 6 -40 44 -38 47 22 47 50 0 55 -2 46 -18z m129 -12
c-11 -16 -25 -32 -30 -35 -10 -6 -59 42 -60 58 0 4 25 7 56 7 l55 0 -21 -30z
m-756 -87 c-15 -21 -29 -40 -31 -42 -4 -6 -62 61 -63 72 0 4 28 7 61 7 l61 0
-28 -37z m156 29 c0 -4 -13 -23 -28 -41 l-28 -33 -27 35 c-15 20 -27 38 -27
41 0 3 25 6 55 6 30 0 55 -4 55 -8z m140 2 c0 -3 -12 -21 -26 -40 -29 -38 -37
-36 -75 18 l-20 28 60 0 c34 0 61 -3 61 -6z m131 -11 c-6 -10 -20 -29 -31 -42
l-20 -23 -20 23 c-47 56 -46 59 20 59 55 0 60 -2 51 -17z m130 -11 c-38 -54
-46 -56 -75 -18 -14 19 -26 37 -26 40 0 3 27 6 61 6 l60 0 -20 -28z m149 21
c0 -5 -13 -23 -29 -42 l-28 -34 -26 35 c-15 19 -27 38 -27 41 0 4 25 7 55 7
30 0 55 -3 55 -7z m140 0 c-1 -5 -14 -23 -30 -42 l-29 -34 -21 24 c-47 56 -46
59 20 59 33 0 60 -3 60 -7z m-781 -124 l-32 -41 -19 23 c-45 57 -44 59 22 59
l62 0 -33 -41z m161 34 c-1 -5 -13 -23 -29 -41 l-28 -32 -32 40 -32 40 61 0
c33 0 60 -3 60 -7z m140 3 c0 -2 -13 -20 -29 -40 l-29 -36 -32 40 -32 40 61 0
c34 0 61 -2 61 -4z m110 -36 l-32 -40 -29 36 c-16 20 -29 38 -29 40 0 2 27 4
61 4 l61 0 -32 -40z m139 0 l-32 -40 -28 32 c-16 18 -28 36 -29 41 0 4 27 7
60 7 l61 0 -32 -40z m152 23 c-6 -10 -19 -29 -29 -42 l-19 -23 -32 41 -33 41
62 0 c55 0 60 -2 51 -17z m-767 -105 c-15 -18 -31 -33 -37 -33 -5 0 -21 15
-34 33 l-26 32 63 0 62 0 -28 -32z m156 26 c0 -3 -12 -20 -27 -39 l-27 -33
-28 35 c-15 20 -28 37 -28 39 0 2 25 4 55 4 30 0 55 -2 55 -6z m133 -6 c-5 -7
-19 -25 -30 -40 l-20 -27 -32 39 -32 40 62 0 c47 0 59 -3 52 -12z m121 -23
c-14 -19 -30 -35 -34 -35 -4 0 -20 16 -34 35 l-27 35 61 0 61 0 -27 -35z m135
-5 l-32 -39 -20 27 c-11 15 -25 33 -30 40 -7 9 5 12 52 12 l62 0 -32 -40z
m161 36 c0 -2 -13 -19 -28 -39 l-28 -35 -27 33 c-15 19 -27 36 -27 39 0 4 25
6 55 6 30 0 55 -2 55 -4z m118 -28 c-14 -18 -30 -33 -35 -33 -6 0 -22 15 -37
33 l-28 32 62 0 63 0 -25 -32z m-747 -75 c-15 -26 -37 -53 -43 -53 -3 0 -18
16 -32 35 l-27 35 56 0 c50 0 55 -2 46 -17z m138 0 c-41 -55 -41 -55 -62 -36
-10 10 -23 26 -28 35 -9 16 -4 18 47 18 52 0 55 -1 43 -17z m125 -18 c-14 -19
-28 -35 -31 -35 -6 0 -52 54 -53 63 0 4 25 7 56 7 l55 0 -27 -35z m156 28 c-1
-9 -47 -63 -53 -63 -3 0 -17 16 -31 35 l-27 35 55 0 c31 0 56 -3 56 -7z m131
-11 c-5 -9 -18 -25 -28 -35 -19 -16 -20 -16 -34 0 -46 55 -46 53 15 53 51 0
56 -2 47 -18z m123 -17 c-30 -40 -32 -41 -51 -17 -39 49 -38 52 22 52 l56 0
-27 -35z"/>
</g>
</svg>
