<?xml version="1.0" standalone="no"?>
<!DOCTYPE svg PUBLIC "-//W3C//DTD SVG 20010904//EN"
 "http://www.w3.org/TR/2001/REC-SVG-20010904/DTD/svg10.dtd">
<svg version="1.0" xmlns="http://www.w3.org/2000/svg"
 width="96.000000pt" height="96.000000pt" viewBox="0 0 96.000000 96.000000"
 preserveAspectRatio="xMidYMid meet">
<metadata>
Created by potrace 1.16, written by Peter Selinger 2001-2019
</metadata>
<g transform="translate(0.000000,96.000000) scale(0.100000,-0.100000)"
fill="#000000" stroke="none">
<path d="M46 911 l-48 -48 49 -46 48 -46 -50 -50 -49 -51 47 -48 47 -47 -47
-48 -47 -47 47 -48 47 -47 -47 -48 -47 -47 49 -50 50 -51 -48 -46 -49 -46 50
-49 49 -50 46 49 46 48 51 -50 50 -49 47 47 48 47 47 -47 48 -47 48 47 47 47
48 -47 47 -47 50 49 51 50 46 -48 46 -49 49 50 50 49 -49 46 -48 46 50 50 49
51 -47 48 -47 47 47 48 47 47 -47 48 -47 47 47 48 47 47 -49 50 -50 51 48 46
49 46 -50 49 -49 50 -46 -49 -46 -48 -50 50 -51 49 -48 -47 -47 -47 -48 47
-47 47 -48 -47 -47 -47 -48 47 -47 47 -50 -49 -50 -49 -48 47 -48 47 -48 -49z
m192 -188 l-48 -47 -45 44 -45 44 47 48 47 48 46 -45 45 -45 -47 -47z m190 0
l-48 -47 -45 44 -45 44 47 48 47 48 46 -45 45 -45 -47 -47z m232 42 c0 -6 -18
-29 -40 -50 l-40 -39 -47 47 -47 47 44 45 44 45 43 -42 c24 -23 43 -47 43 -53z
m155 -45 l-45 -45 -47 47 -47 48 44 45 44 45 48 -47 48 -47 -45 -46z m-345
-144 c0 -13 -71 -86 -84 -86 -6 0 -30 19 -53 42 l-43 42 47 48 47 48 43 -42
c24 -23 43 -47 43 -52z m158 -43 c-23 -24 -47 -43 -52 -43 -13 0 -86 71 -86
84 0 6 19 30 42 53 l42 43 48 -47 48 -47 -42 -43z m-383 87 l39 -40 -47 -47
-47 -47 -45 44 -45 44 42 43 c23 24 47 43 53 43 6 0 29 -18 50 -40z m573 -3
l42 -43 -45 -44 -45 -44 -47 47 -47 47 39 40 c21 22 44 40 50 40 6 0 30 -19
53 -43z m-578 -192 l44 -45 -39 -40 c-21 -22 -44 -40 -49 -40 -6 0 -30 19 -53
42 l-43 42 42 43 c23 24 45 43 48 43 3 0 26 -20 50 -45z m192 8 c21 -20 38
-42 38 -47 0 -6 -19 -30 -42 -53 l-42 -43 -48 47 -48 47 42 43 c23 24 47 43
52 43 6 0 27 -17 48 -37z m195 -5 l43 -42 -47 -48 -47 -48 -43 42 c-24 23 -43
47 -43 52 0 13 71 86 84 86 6 0 30 -19 53 -42z m191 -1 l42 -43 -43 -42 c-23
-23 -47 -42 -53 -42 -5 0 -28 18 -49 40 l-39 40 44 45 c24 25 47 45 50 45 3 0
25 -19 48 -43z m-578 -192 l44 -45 -44 -45 -44 -45 -48 47 -48 47 42 43 c23
24 45 43 48 43 3 0 26 -20 50 -45z m190 0 l44 -45 -44 -45 -44 -45 -43 42
c-24 23 -43 47 -43 52 0 11 70 86 80 86 3 0 26 -20 50 -45z m192 8 c21 -20 38
-42 38 -48 0 -6 -19 -30 -43 -53 l-43 -42 -44 45 -44 45 44 45 c24 25 46 45
49 45 3 0 22 -17 43 -37z m196 -6 l42 -43 -48 -47 -48 -47 -44 45 -44 45 44
45 c24 25 47 45 50 45 3 0 25 -19 48 -43z"/>
</g>
</svg>
